<?xml version="1.0" standalone="no"?>
<!DOCTYPE svg PUBLIC "-//W3C//DTD SVG 20010904//EN"
 "http://www.w3.org/TR/2001/REC-SVG-20010904/DTD/svg10.dtd">
<svg version="1.0" xmlns="http://www.w3.org/2000/svg"
 width="703.000000pt" height="703.000000pt" viewBox="0 0 703.000000 703.000000"
 preserveAspectRatio="xMidYMid meet">
<metadata>
Created by potrace 1.14, written by Peter Selinger 2001-2017
</metadata>
<g transform="translate(0.000000,703.000000) scale(0.100000,-0.100000)"
fill="#000000" stroke="none">
<path d="M3256 6972 c-2 -4 -1 -14 4 -22 7 -11 9 -9 7 8 -1 24 -3 26 -11 14z"/>
<path d="M3305 6961 l20 -24 -22 12 c-20 10 -35 -1 -15 -12 4 -2 2 -3 -4 -1
-6 1 -17 -3 -23 -9 -10 -9 -12 -9 -9 1 2 8 -6 20 -18 28 -18 12 -21 12 -21 0
0 -8 7 -12 16 -9 14 4 14 3 2 -5 -10 -7 -21 -7 -32 -1 -12 6 -19 5 -21 -3 -4
-12 -78 -20 -78 -8 0 3 6 12 13 19 6 8 0 6 -15 -4 -16 -9 -28 -19 -28 -22 0
-2 4 -1 10 2 6 4 7 -1 3 -11 -4 -11 -8 -13 -11 -6 -2 7 -8 9 -14 6 -5 -4 -4 4
3 17 11 21 10 22 -3 12 -8 -7 -19 -9 -23 -5 -5 4 -5 -2 -1 -13 6 -16 5 -17 -5
-8 -10 10 -15 9 -24 -4 -11 -14 -12 -14 -18 1 -5 12 -3 15 6 10 7 -4 7 -1 -2
7 -10 11 -15 11 -18 2 -3 -7 -11 -13 -19 -13 -8 0 -14 -5 -14 -10 0 -7 6 -7
20 0 28 15 25 5 -5 -14 -14 -9 -25 -13 -24 -9 3 19 -2 33 -12 33 -6 0 -9 -7
-6 -15 4 -8 1 -17 -5 -21 -6 -4 -8 -3 -4 4 3 6 2 13 -4 17 -5 3 -10 1 -10 -6
0 -7 -8 -5 -22 7 l-21 19 18 -30 c10 -16 13 -25 6 -18 -8 6 -21 9 -30 6 -14
-4 -14 -3 -1 6 12 8 11 10 -8 8 -13 -1 -21 -6 -18 -14 8 -21 -14 -26 -29 -7
-13 18 -14 18 -20 2 -4 -10 -11 -18 -17 -18 -5 0 -7 4 -3 9 3 5 1 12 -4 15 -5
4 -8 -5 -7 -19 2 -14 -1 -22 -7 -18 -5 3 -16 -2 -24 -12 -19 -27 -16 -4 4 25
16 25 16 25 -4 7 -11 -9 -23 -14 -27 -10 -4 5 -6 1 -5 -7 4 -16 -1 -20 -28
-20 -15 0 -16 2 -3 10 9 6 10 10 3 10 -6 0 -15 -5 -18 -10 -4 -6 -11 -7 -17
-4 -7 4 -8 2 -4 -4 4 -7 1 -12 -9 -12 -10 0 -13 5 -9 12 4 7 3 8 -4 4 -6 -4
-9 -13 -6 -21 4 -8 10 -12 15 -9 15 9 10 -3 -8 -17 -9 -8 -14 -9 -10 -3 4 7 1
17 -7 23 -10 9 -15 8 -20 -4 -4 -11 -2 -14 7 -9 9 5 8 3 -1 -7 -11 -12 -14
-12 -22 1 -5 8 -7 17 -4 21 2 4 0 10 -5 14 -6 3 -8 -5 -5 -20 4 -25 -10 -35
-19 -12 -3 6 -6 2 -6 -10 -1 -13 -6 -23 -12 -23 -5 0 -7 4 -4 10 3 6 -1 7 -9
4 -9 -3 -14 -9 -11 -14 2 -4 -7 -5 -20 -2 -27 5 -32 -6 -12 -28 10 -12 9 -12
-4 -2 -13 10 -21 8 -43 -13 -14 -13 -26 -20 -26 -15 0 5 -8 14 -18 19 -14 7
-19 6 -19 -4 0 -8 4 -12 8 -10 9 6 5 -22 -4 -30 -4 -3 -5 -2 -2 2 11 14 -17
33 -35 23 -9 -5 -21 -6 -25 -2 -5 4 -6 0 -2 -10 6 -17 -29 -33 -39 -17 -9 14
-24 10 -24 -7 0 -8 -4 -13 -9 -9 -5 3 -12 1 -15 -4 -4 -5 -1 -13 5 -17 7 -4 9
-3 6 3 -3 5 -1 10 6 11 7 0 25 3 42 7 16 3 27 4 24 0 -4 -3 -17 -8 -29 -10
-13 -3 -27 -10 -31 -16 -4 -6 -11 -9 -17 -5 -6 3 -13 2 -16 -3 -4 -5 -17 -8
-31 -6 -20 2 -23 -1 -14 -11 8 -10 5 -12 -15 -8 -15 2 -26 0 -26 -6 0 -6 4 -9
8 -6 4 2 14 0 22 -6 12 -8 12 -9 -2 -4 -11 3 -23 -3 -32 -15 -9 -13 -15 -16
-18 -8 -3 8 -11 5 -25 -10 -12 -13 -26 -20 -32 -17 -5 4 -16 -3 -24 -14 -7
-11 -18 -17 -23 -12 -5 4 0 -4 11 -17 11 -14 15 -21 9 -18 -7 4 -17 1 -23 -7
-7 -8 -21 -12 -31 -9 -12 3 -20 0 -20 -6 0 -7 4 -10 9 -6 5 3 13 0 17 -6 4 -7
3 -9 -4 -5 -6 3 -13 2 -17 -4 -4 -7 -12 -7 -25 0 -25 13 -40 12 -17 -1 20 -12
23 -31 3 -23 -7 3 -16 -2 -20 -11 -5 -13 -1 -15 17 -10 20 5 20 5 3 -6 -13 -8
-25 -8 -41 -1 -14 7 -27 7 -36 0 -11 -8 -11 -9 3 -5 9 3 22 0 28 -8 9 -11 7
-12 -10 -8 -16 4 -23 0 -27 -16 -3 -11 -9 -21 -14 -21 -5 0 -6 8 -2 18 4 10
-2 8 -14 -8 -16 -18 -18 -28 -11 -38 6 -7 8 -15 4 -19 -3 -3 -6 -1 -6 5 0 7
-10 12 -22 12 -22 -1 -22 -2 -5 -14 16 -12 16 -14 2 -20 -9 -3 -13 -2 -10 4 3
6 -1 10 -10 10 -12 0 -15 -6 -10 -22 4 -16 3 -19 -3 -9 -8 11 -10 11 -14 0 -4
-12 -8 -11 -23 1 -17 14 -17 14 -7 -7 7 -12 17 -24 24 -26 7 -3 2 -5 -12 -4
-15 1 -24 -3 -22 -10 3 -17 -3 -16 -22 2 -13 14 -15 13 -13 -5 1 -11 8 -20 17
-21 10 0 9 -3 -5 -8 -11 -5 -29 -5 -41 -1 -17 7 -20 4 -20 -18 1 -15 -4 -27
-11 -27 -6 0 -23 -10 -37 -22 -14 -13 -29 -22 -34 -22 -22 4 -30 -3 -27 -21 2
-11 0 -20 -5 -20 -11 0 -21 30 -13 42 3 7 1 8 -6 4 -6 -4 -9 -18 -7 -31 3 -17
1 -22 -10 -18 -8 3 -11 10 -7 17 3 6 -3 3 -14 -7 -11 -9 -23 -14 -26 -10 -4 3
-7 1 -7 -6 0 -7 6 -11 14 -8 17 7 30 -20 14 -29 -6 -4 -8 -3 -5 3 4 6 -4 13
-17 15 -18 4 -23 1 -18 -10 3 -10 1 -13 -7 -8 -6 4 -10 4 -9 -1 4 -14 -13 -53
-23 -53 -6 0 -7 -5 -3 -12 5 -7 3 -8 -5 -4 -9 6 -9 12 3 25 14 15 14 18 2 18
-8 0 -14 -4 -13 -8 1 -4 -7 -14 -17 -22 -15 -11 -16 -16 -6 -22 9 -6 11 -4 5
5 -5 9 -4 11 3 6 8 -5 4 -19 -14 -47 -13 -22 -21 -45 -17 -52 4 -7 0 -7 -10 2
-14 11 -17 11 -17 -1 0 -8 6 -20 13 -28 6 -8 1 -6 -12 5 l-24 20 13 -25 c12
-22 12 -24 -2 -12 -13 10 -18 10 -24 1 -4 -8 -3 -9 4 -5 8 5 12 0 12 -13 0
-11 -5 -23 -10 -26 -8 -5 -7 -11 1 -21 10 -12 9 -13 -5 -8 -19 7 -19 9 -7 33
7 13 6 18 -4 18 -8 0 -12 -3 -10 -6 7 -12 -12 -76 -21 -74 -5 1 -9 -17 -8 -39
1 -35 -1 -39 -12 -24 -8 11 -14 13 -19 7 -3 -6 -1 -11 6 -11 8 0 7 -5 -2 -17
-11 -13 -11 -17 -2 -20 7 -3 13 -9 13 -14 0 -5 -10 -4 -23 2 -21 12 -21 11 -7
-6 14 -17 13 -18 -2 -12 -12 4 -15 2 -12 -8 3 -8 13 -11 22 -8 15 4 15 3 2 -6
-8 -6 -24 -8 -35 -5 l-20 6 20 -16 c17 -13 18 -15 3 -16 -9 0 -20 -5 -24 -12
-5 -7 -2 -9 8 -6 8 4 15 0 15 -8 0 -7 -4 -11 -9 -8 -4 3 -8 -1 -8 -10 0 -8 6
-17 13 -20 6 -3 2 -3 -10 -1 -12 3 -25 0 -29 -6 -4 -8 -3 -9 4 -5 7 4 12 1 12
-8 0 -9 -4 -16 -10 -16 -5 0 -10 -5 -10 -11 0 -6 6 -9 13 -6 8 3 14 -1 14 -9
0 -7 -4 -11 -8 -8 -11 7 -22 -34 -25 -99 -2 -41 1 -55 9 -50 7 4 6 -1 -2 -10
-12 -15 -12 -17 0 -14 8 2 11 2 7 0 -4 -2 -5 -10 -2 -18 3 -7 1 -16 -5 -20 -7
-3 -8 0 -5 9 3 9 1 16 -4 16 -11 0 -9 -21 4 -62 4 -15 3 -19 -7 -14 -8 4 -5 0
6 -10 12 -10 14 -15 5 -12 -8 3 -21 -1 -29 -9 -12 -13 -11 -14 6 -9 13 4 20 2
20 -8 0 -9 -4 -13 -9 -10 -4 3 -8 -4 -8 -14 0 -15 5 -19 22 -16 21 4 21 4 -2
-6 -18 -8 -21 -13 -11 -19 11 -7 11 -9 0 -13 -12 -4 -11 -8 1 -24 14 -17 14
-18 -1 -6 -14 10 -18 10 -23 -4 -9 -24 -7 -46 3 -39 5 3 13 0 17 -6 4 -7 3 -9
-4 -5 -6 3 -14 1 -18 -5 -4 -8 -9 -7 -15 2 -6 10 -9 10 -9 2 0 -6 4 -14 10
-18 5 -3 7 -12 3 -20 -3 -8 0 -15 7 -15 6 0 8 5 5 10 -3 6 -1 10 5 10 6 0 8
-11 4 -27 -3 -16 -6 -33 -6 -40 -1 -7 -5 -10 -10 -7 -12 7 4 -30 16 -38 6 -5
2 -8 -11 -8 -12 0 -24 -4 -28 -9 -3 -6 4 -8 16 -6 15 3 18 1 11 -8 -9 -12 -8
-44 2 -54 3 -3 11 -2 19 3 7 5 5 2 -5 -8 -21 -19 -24 -33 -5 -22 8 5 7 2 -2
-10 -11 -13 -12 -19 -2 -29 10 -9 11 -8 6 8 l-7 20 13 -20 c16 -25 21 -47 8
-39 -5 3 -6 10 -3 16 4 7 2 8 -4 4 -15 -9 -15 -11 1 -28 19 -21 43 -66 26 -50
-17 16 -26 15 -26 -3 0 -8 4 -12 8 -9 4 2 10 0 14 -6 3 -5 2 -10 -4 -10 -6 0
-8 -7 -4 -16 5 -13 7 -13 14 -2 5 7 9 8 9 3 0 -6 -5 -16 -11 -22 -13 -13 3
-47 35 -76 12 -10 15 -16 8 -12 -17 9 -28 -23 -13 -38 9 -9 11 -7 6 8 -6 16
-5 17 4 5 8 -11 7 -18 -4 -26 -16 -12 -21 -29 -6 -19 5 3 17 -2 26 -11 15 -15
14 -18 -7 -41 -17 -18 -18 -22 -5 -17 10 3 17 1 17 -5 0 -6 -6 -11 -12 -11 -9
0 -10 -3 -2 -8 6 -4 10 -15 8 -25 -1 -10 3 -16 9 -15 7 2 13 -2 15 -7 1 -6 -2
-10 -7 -10 -5 0 -13 -4 -18 -9 -5 -6 -2 -6 6 -1 11 6 13 4 8 -8 -3 -9 -1 -19
5 -23 6 -4 8 -3 4 4 -3 6 -1 14 6 18 7 4 10 3 5 -1 -4 -5 0 -19 9 -33 9 -13
12 -22 8 -19 -5 3 -15 -1 -22 -9 -9 -10 -9 -14 -1 -14 8 0 8 -5 -2 -17 -11
-15 -11 -16 1 -5 26 22 32 12 10 -17 -14 -21 -17 -32 -9 -37 7 -4 9 -3 6 3 -4
6 1 17 10 24 10 8 14 9 10 2 -4 -7 0 -13 10 -16 16 -4 16 -5 -1 -6 -16 -1 -17
-3 -5 -17 12 -15 11 -16 -11 -10 -23 7 -23 6 5 -14 17 -12 22 -20 13 -16 -10
3 -18 1 -18 -4 0 -6 5 -10 12 -10 6 0 3 -7 -8 -16 -10 -8 -14 -13 -8 -10 7 3
15 -1 18 -10 4 -11 2 -15 -8 -11 -11 4 -13 1 -9 -10 5 -12 3 -14 -7 -8 -9 5
-11 4 -6 -4 6 -9 11 -9 21 -1 10 8 15 8 21 -1 4 -8 3 -9 -4 -5 -8 5 -12 0 -12
-13 0 -12 -5 -21 -11 -21 -5 0 -7 4 -4 10 10 16 -1 12 -15 -6 -8 -8 -9 -14 -4
-13 22 4 30 -3 30 -25 0 -14 -3 -23 -6 -21 -3 2 -12 0 -20 -6 -9 -5 -10 -9 -4
-9 7 0 15 -7 18 -16 3 -9 2 -12 -4 -9 -7 4 -9 -5 -5 -24 3 -19 1 -31 -5 -31
-6 0 -8 5 -5 10 3 6 2 10 -3 10 -6 0 -13 -7 -16 -16 -3 -8 -2 -12 3 -9 5 3 12
1 16 -5 3 -5 1 -10 -4 -10 -6 0 -11 -7 -11 -16 0 -8 4 -13 9 -9 5 3 13 0 17
-7 4 -7 4 -10 -1 -6 -13 12 -38 -31 -27 -45 14 -19 21 -57 10 -54 -6 1 -13 -4
-16 -12 -3 -8 0 -11 7 -7 6 4 11 0 11 -9 0 -9 -4 -13 -10 -10 -5 3 -10 1 -10
-5 0 -6 -5 -8 -12 -4 -7 4 -8 3 -4 -4 4 -6 13 -9 21 -6 11 5 12 -1 3 -30 -8
-25 -14 -32 -20 -24 -4 7 -8 8 -8 3 0 -6 6 -17 12 -23 10 -10 10 -15 0 -21
-11 -7 -10 -10 3 -14 9 -4 13 -3 10 2 -3 5 -2 12 3 15 4 2 8 -4 9 -14 1 -11
-6 -22 -16 -25 -17 -5 -27 -45 -11 -45 5 0 14 -10 20 -22 11 -22 11 -22 -4 -4
-13 17 -18 18 -29 6 -9 -10 -9 -12 0 -6 7 4 13 2 13 -3 0 -20 2 -26 11 -38 7
-8 3 -16 -12 -27 -21 -15 -38 -53 -18 -40 5 3 9 0 9 -6 0 -6 6 -8 12 -4 8 4
10 3 5 -2 -5 -5 -14 -9 -20 -9 -5 0 -11 -10 -12 -22 -1 -12 2 -20 6 -18 4 3
10 -2 13 -11 3 -8 11 -12 17 -8 8 4 9 3 5 -5 -6 -9 -11 -9 -21 -1 -11 9 -13 5
-11 -22 2 -18 -2 -39 -7 -46 -8 -10 -7 -16 4 -24 11 -7 11 -11 2 -15 -18 -7
-16 -20 2 -20 8 0 12 4 9 8 -2 4 1 11 8 15 7 4 10 4 6 -1 -4 -4 -2 -15 5 -23
6 -9 7 -13 2 -10 -6 4 -19 -1 -30 -9 -20 -15 -20 -15 0 -9 26 7 54 -8 30 -17
-11 -5 -14 -3 -9 6 4 6 3 8 -2 4 -4 -4 -9 -19 -10 -32 0 -16 3 -22 13 -18 12
5 12 7 1 14 -10 7 -9 9 5 9 23 0 22 -16 -3 -33 -18 -13 -19 -15 -5 -21 11 -4
14 -2 9 7 -5 9 -4 9 6 0 13 -12 5 -37 -10 -28 -5 3 -12 0 -16 -6 -4 -7 -3 -9
4 -5 6 3 13 2 17 -3 3 -5 -3 -14 -12 -20 -10 -6 -13 -11 -7 -11 16 0 35 25 26
35 -4 5 -1 5 6 1 7 -4 10 -11 7 -16 -3 -5 3 -14 12 -20 16 -10 15 -10 -5 -5
-21 6 -21 5 -11 -22 16 -41 19 -64 8 -58 -18 12 -9 -7 13 -24 17 -14 18 -18 5
-18 -9 0 -13 5 -10 10 3 6 1 7 -4 4 -8 -5 -8 -19 -1 -47 6 -22 14 -37 19 -34
5 3 8 0 7 -8 -2 -7 2 -12 8 -11 6 1 11 -5 11 -12 0 -11 -4 -12 -14 -4 -9 8
-13 8 -13 1 0 -6 8 -16 17 -22 15 -9 14 -10 -7 -6 -14 3 -19 3 -12 0 10 -5 10
-9 1 -20 -10 -12 -8 -16 9 -21 24 -6 30 -23 10 -23 -7 -1 -1 -8 15 -16 15 -8
27 -19 27 -25 0 -6 4 -8 10 -4 5 3 7 13 4 23 -5 14 -4 14 4 3 7 -10 7 -21 1
-34 -8 -15 -7 -18 7 -15 11 2 20 -4 22 -16 2 -10 0 -16 -6 -12 -5 3 -12 0 -15
-8 -3 -8 1 -13 10 -12 9 0 17 -7 19 -17 3 -22 14 -36 14 -19 0 7 8 12 18 12
14 0 15 -2 2 -10 -10 -6 -11 -10 -2 -10 19 0 27 4 24 13 -1 5 2 5 9 2 7 -5 2
-16 -13 -32 -15 -16 -18 -24 -8 -21 8 2 14 -3 13 -9 -2 -7 4 -13 14 -13 14 0
14 2 -2 20 -10 11 -13 20 -8 20 10 0 27 -29 23 -39 -1 -2 4 -8 12 -13 10 -7 9
-8 -4 -4 -10 3 -18 1 -18 -5 0 -6 -5 -7 -12 -3 -6 4 -8 3 -4 -4 3 -6 18 -8 33
-6 l26 5 -24 -21 c-13 -12 -18 -19 -11 -15 6 3 12 1 12 -5 0 -6 4 -8 10 -5 6
3 10 -5 10 -19 0 -13 -5 -26 -12 -28 -7 -3 -4 -7 7 -12 11 -4 16 -4 12 0 -8 9
11 34 26 34 6 0 2 -7 -9 -15 -10 -8 -15 -15 -10 -15 5 0 2 -8 -5 -17 -12 -15
-12 -16 2 -11 13 5 16 2 11 -15 -3 -12 -9 -25 -14 -28 -6 -3 -2 -9 7 -12 9 -4
13 -3 10 2 -3 5 -1 12 4 15 11 7 9 -12 -6 -39 -13 -25 -6 -45 15 -46 14 0 13
-2 -3 -9 -14 -6 -16 -9 -5 -10 8 -2 18 -2 21 -2 3 1 6 -6 6 -13 0 -11 -4 -12
-14 -3 -11 9 -12 7 -7 -8 5 -18 5 -18 -9 -1 -13 16 -15 16 -21 2 -3 -9 -2 -13
3 -10 5 3 12 1 16 -4 3 -6 11 -8 19 -5 7 3 13 -1 13 -9 0 -9 -8 -13 -21 -10
-21 4 -21 4 -1 -9 25 -16 29 -35 13 -56 -11 -14 -10 -15 6 -9 16 6 17 5 7 -7
-10 -12 -9 -20 5 -43 l18 -28 -23 20 -24 20 14 -23 c8 -12 17 -22 21 -22 5 0
8 -7 8 -16 0 -8 -5 -12 -10 -9 -5 3 -10 2 -10 -4 0 -5 6 -12 13 -14 9 -4 8 -8
-3 -16 -8 -6 -10 -11 -5 -11 6 0 21 7 33 16 12 8 22 11 22 6 0 -6 -7 -12 -15
-16 -17 -6 -21 -36 -5 -36 6 0 10 -5 10 -11 0 -5 -5 -7 -11 -4 -5 4 -1 -10 10
-31 11 -20 18 -41 15 -46 -3 -4 -1 -8 4 -8 6 0 9 11 8 25 0 14 -5 25 -10 25
-5 0 -7 2 -4 5 3 3 13 2 22 -1 14 -5 15 -9 4 -15 -11 -7 -10 -11 2 -18 8 -5
18 -7 24 -4 5 3 6 1 2 -6 -4 -6 -11 -9 -15 -6 -5 2 -13 -7 -19 -20 -9 -20 -9
-23 3 -18 8 3 12 10 8 17 -4 7 -1 7 9 -1 8 -7 17 -11 20 -8 2 3 3 -9 0 -25 -2
-17 0 -30 5 -30 5 0 10 -7 11 -15 1 -8 3 -22 4 -30 1 -8 8 -17 16 -20 10 -3
12 0 8 10 -3 8 -1 15 5 15 6 0 8 -13 6 -29 -3 -17 1 -38 8 -47 7 -10 10 -25 7
-33 -5 -14 -4 -14 10 -1 9 8 12 17 7 18 -5 2 -14 12 -19 22 -7 14 -6 18 5 16
8 -1 18 -6 22 -11 4 -4 2 -5 -4 -1 -21 12 -15 -4 9 -26 13 -11 17 -16 9 -12
-11 5 -13 3 -8 -10 4 -10 7 -20 7 -22 0 -2 5 -4 11 -4 5 0 8 4 5 8 -3 5 1 9 9
9 21 0 19 -10 -6 -25 -20 -13 -20 -14 -4 -32 11 -13 26 -17 48 -14 23 2 28 1
17 -6 -13 -8 -13 -11 -1 -22 11 -11 13 -11 6 1 -6 10 -4 12 6 5 8 -5 19 -9 24
-9 6 0 10 -18 9 -40 -1 -22 1 -34 3 -27 3 6 9 12 15 12 6 0 8 -7 5 -15 -4 -8
-2 -17 4 -21 6 -3 8 -12 5 -20 -4 -10 0 -11 19 -4 15 6 27 6 30 -1 4 -5 11 -7
16 -4 5 4 9 2 9 -4 0 -18 -18 -21 -24 -5 -4 9 -9 15 -11 12 -10 -9 7 -38 21
-38 8 0 14 -9 14 -20 0 -11 9 -29 20 -40 12 -12 18 -25 15 -30 -3 -5 0 -7 8
-4 8 3 18 0 22 -6 3 -6 1 -9 -5 -8 -7 2 -14 -5 -15 -14 -3 -16 -1 -16 21 -1
14 9 27 13 31 9 3 -3 0 -6 -7 -6 -10 0 -11 -3 -3 -11 13 -13 6 -42 -7 -34 -5
3 -11 1 -14 -4 -7 -11 13 -9 32 3 16 9 31 -2 16 -12 -13 -9 -12 -34 3 -39 6
-2 15 1 19 8 5 9 2 10 -10 6 -14 -6 -15 -4 -5 16 15 28 24 37 16 15 -3 -10 -2
-20 3 -23 6 -4 10 -1 10 6 0 7 3 9 6 6 4 -4 1 -14 -6 -22 -11 -13 -11 -18 0
-28 8 -8 11 -8 7 -1 -4 7 -1 17 7 23 10 9 13 7 13 -6 0 -43 3 -49 13 -33 9 13
10 13 11 0 1 -8 3 -19 4 -25 2 -5 3 -14 4 -20 1 -5 5 -4 10 3 7 11 9 10 14 -3
4 -9 3 -13 -3 -10 -6 3 -10 1 -10 -6 0 -9 -4 -9 -12 2 -7 8 -12 12 -11 10 2
-2 -2 -10 -8 -17 -7 -8 -6 -14 2 -20 7 -4 9 -3 6 3 -4 6 4 11 18 11 14 0 25
-5 25 -10 0 -5 5 -6 12 -2 7 4 8 3 4 -4 -4 -6 -13 -9 -20 -6 -8 3 -17 0 -22
-7 -5 -8 -3 -10 5 -5 7 5 18 0 27 -10 8 -11 13 -14 12 -9 -2 6 2 10 7 10 6 0
9 -3 8 -6 -11 -32 -10 -56 2 -55 8 0 14 -3 15 -9 3 -19 22 -35 34 -28 19 13
35 12 30 -2 -7 -16 24 -47 38 -39 7 4 8 2 4 -4 -5 -8 -13 -8 -31 0 -13 6 -23
14 -20 17 2 4 -1 13 -6 21 -7 11 -8 9 -6 -9 2 -14 9 -27 15 -29 7 -2 10 -8 7
-13 -4 -5 1 -6 9 -3 15 6 21 -9 17 -43 -1 -6 3 -14 9 -18 6 -4 7 1 3 12 -5 15
-3 16 8 6 16 -15 43 -17 34 -3 -4 6 -11 7 -17 4 -7 -5 -8 -2 -3 6 5 8 4 11 -3
6 -16 -9 -26 14 -13 27 9 9 11 7 6 -8 -6 -19 -6 -19 8 -2 10 12 17 14 22 8 3
-6 1 -11 -6 -11 -7 0 -5 -8 6 -20 13 -14 21 -17 26 -9 5 8 8 8 13 0 4 -6 1
-11 -6 -11 -10 0 -10 -2 1 -9 11 -7 11 -9 0 -13 -8 -3 -11 -9 -7 -13 4 -4 13
-3 20 1 22 14 43 15 29 1 -14 -14 -14 -37 0 -37 5 0 8 4 4 9 -3 5 0 13 7 17 7
4 10 4 6 -1 -11 -12 21 -38 48 -38 13 0 27 -3 30 -8 3 -5 -3 -6 -13 -2 -17 5
-17 5 -1 -12 15 -16 19 -16 34 -4 16 13 16 12 4 -8 -12 -18 -17 -20 -29 -10
-9 7 -7 0 4 -15 11 -15 27 -26 35 -25 8 1 14 -3 13 -10 -2 -11 21 -12 33 -1
10 10 35 -3 27 -15 -4 -6 -1 -7 7 -2 10 6 9 11 -5 21 -13 10 -22 11 -31 3 -7
-6 -14 -6 -18 -1 -10 17 32 20 54 5 14 -10 19 -22 15 -36 -2 -12 -2 -16 1 -9
3 6 10 12 15 12 6 0 7 -4 4 -10 -3 -6 1 -7 9 -4 9 3 16 1 16 -6 0 -7 5 -6 15
4 19 18 20 33 2 17 -10 -8 -18 -7 -30 2 -16 11 -15 13 5 26 21 13 22 13 10 -2
-8 -9 -9 -18 -3 -21 5 -4 13 -1 17 5 5 9 11 7 21 -6 7 -11 13 -15 13 -11 0 5
7 3 15 -4 8 -7 13 -16 10 -20 -3 -5 0 -12 6 -16 8 -4 9 -3 5 4 -11 18 9 14 24
-3 8 -10 20 -13 34 -9 18 6 19 5 9 -8 -10 -12 -10 -15 2 -15 8 0 12 4 9 9 -8
12 30 10 43 -3 8 -8 13 -7 18 2 5 8 4 10 -3 5 -8 -5 -10 -1 -5 10 5 15 7 15
17 -2 6 -11 18 -20 26 -22 11 -3 9 3 -5 20 -11 13 -16 20 -11 16 5 -4 16 -2
25 5 14 10 14 10 3 -4 -10 -14 -10 -18 3 -23 9 -3 13 -10 10 -16 -3 -6 1 -7 9
-4 9 3 16 10 16 16 0 5 -5 6 -12 2 -7 -5 -8 -3 -3 6 6 10 11 9 22 -5 9 -14 13
-15 13 -4 0 12 2 12 9 -1 6 -8 8 -17 6 -20 -2 -4 2 -7 10 -7 8 0 11 5 8 10 -4
6 1 8 11 4 11 -4 15 -3 11 4 -4 6 -13 8 -21 5 -8 -3 -14 -1 -14 4 0 5 13 8 29
7 16 -1 28 -4 26 -7 -2 -3 4 -12 13 -20 14 -13 15 -12 9 3 -8 22 2 22 19 0 12
-15 13 -16 8 -2 -3 10 0 20 7 25 7 4 10 3 6 -2 -3 -6 12 -11 35 -11 36 -2 38
0 26 15 -11 15 -10 15 8 -1 11 -9 24 -14 28 -10 11 11 36 12 36 1 0 -6 -7 -8
-14 -5 -10 4 -13 1 -10 -7 4 -11 10 -11 35 1 24 12 52 19 92 22 5 1 5 6 1 13
-4 7 -3 8 4 4 6 -4 8 -14 5 -23 -6 -14 -1 -13 23 4 16 11 32 22 35 24 4 2 16
-4 27 -14 13 -12 22 -15 27 -8 3 6 11 11 16 11 6 0 7 -5 3 -12 -5 -7 -3 -8 5
-4 7 5 10 14 7 21 -5 14 11 15 31 2 6 -4 15 -2 19 4 5 8 3 9 -6 4 -8 -5 -11
-4 -7 3 4 5 16 8 27 5 19 -5 20 -6 3 -20 -16 -13 -16 -13 5 -3 12 6 20 15 18
19 -3 4 6 13 20 20 30 13 45 14 24 1 -10 -6 -5 -9 18 -8 32 1 43 12 20 21 -7
3 1 4 19 3 17 -1 38 -7 46 -14 11 -10 17 -9 28 5 13 16 12 17 -2 5 -14 -10
-18 -10 -22 1 -3 9 5 14 25 15 21 2 27 -1 22 -10 -5 -10 -4 -10 6 -1 11 10 11
15 -1 30 -13 17 -12 17 8 0 16 -14 22 -15 26 -5 4 10 6 10 6 0 1 -9 6 -10 20
-2 14 7 21 6 25 -3 4 -6 4 -2 2 9 -5 29 9 52 17 29 5 -10 3 -14 -5 -9 -7 4 -8
3 -4 -5 11 -16 26 -4 26 22 0 17 2 19 9 8 5 -8 8 -19 7 -25 -1 -6 2 -1 8 12
12 26 28 30 20 5 -5 -15 -4 -15 4 -3 8 10 8 18 1 27 -8 9 -4 10 20 3 20 -6 33
-5 37 2 4 6 2 8 -3 5 -6 -4 -14 0 -17 9 -4 10 -2 13 6 8 8 -5 9 -1 4 12 -5 14
-1 13 16 -6 13 -14 20 -21 17 -15 -18 32 -17 43 4 38 21 -5 21 -5 3 9 -17 13
-16 14 13 12 17 -1 28 2 25 7 -3 5 -10 7 -15 4 -5 -4 -9 -1 -9 6 0 6 8 9 19 6
12 -3 22 1 25 10 4 8 1 11 -5 7 -8 -5 -8 -1 0 13 6 11 7 24 3 28 -4 5 -1 5 6
1 7 -5 12 -1 12 9 0 10 6 15 13 12 7 -3 26 1 42 9 l30 13 -35 -4 -35 -5 28 16
c15 8 31 13 36 10 4 -3 8 1 8 9 0 8 -3 12 -7 10 -4 -2 -7 2 -7 10 0 11 5 12
20 4 16 -9 18 -8 13 9 -7 22 23 40 35 21 4 -8 9 -4 14 10 3 12 11 19 16 16 5
-4 9 -1 9 5 0 7 -6 10 -14 7 -8 -3 -22 1 -33 9 -17 14 -17 14 4 5 17 -9 25 -7
37 5 9 9 14 19 11 24 -3 5 0 12 6 16 8 4 9 3 5 -4 -5 -8 1 -11 18 -10 13 1 22
6 20 10 -3 4 -1 8 5 8 14 0 53 68 46 80 -4 6 -1 9 6 8 7 -2 13 3 14 11 0 8 10
16 23 18 15 2 21 -1 17 -8 -4 -6 -14 -8 -23 -4 -9 3 -13 3 -9 -1 4 -4 2 -12
-3 -19 -7 -8 -5 -12 5 -12 8 0 12 4 10 8 -6 8 25 23 40 20 5 -1 1 8 -10 20
-18 20 -18 22 -2 16 9 -4 17 -2 17 3 0 6 -4 10 -10 10 -5 0 -2 9 7 19 9 11 20
18 25 15 4 -3 9 0 9 5 3 26 4 30 11 37 8 8 2 -31 -7 -46 -4 -6 -10 -8 -14 -6
-4 3 -8 -9 -8 -27 l0 -32 12 28 c6 15 15 24 20 20 4 -5 5 -3 1 4 -3 6 4 22 16
34 13 12 17 18 9 14 -10 -6 -12 -4 -7 4 4 6 2 20 -5 29 -11 13 -8 12 9 -2 22
-19 32 -10 11 11 -8 8 -7 13 2 18 8 6 10 4 4 -5 -6 -10 -4 -12 9 -7 9 4 15 3
12 -1 -2 -4 0 -14 6 -22 8 -12 9 -12 4 3 -3 10 0 17 7 17 7 0 3 8 -8 17 -18
14 -18 15 -1 9 14 -5 17 -3 12 10 -5 14 -4 15 9 4 13 -10 15 -9 15 9 0 11 5
21 11 21 5 0 8 -4 5 -8 -2 -4 -1 -14 5 -22 6 -11 9 -11 10 -2 1 6 3 17 4 22 1
6 3 18 4 28 1 15 3 15 11 2 8 -13 10 -13 10 2 0 9 -6 19 -12 22 -7 3 -4 4 7 3
13 -1 20 4 19 14 -1 9 5 16 12 16 7 0 11 -3 9 -7 -2 -4 2 -7 9 -7 8 0 12 7 8
15 -3 10 -1 13 6 8 6 -3 13 -2 16 3 4 5 1 13 -5 17 -8 5 -9 3 -4 -6 6 -9 4
-11 -5 -5 -10 6 -10 11 3 20 9 7 13 16 9 20 -4 5 -1 5 6 1 7 -4 10 -11 7 -16
-3 -5 -1 -11 4 -14 5 -3 8 7 7 23 -2 26 0 28 16 20 10 -6 15 -15 12 -21 -5 -7
-2 -8 5 -4 9 6 8 13 -6 28 -18 21 -18 21 7 8 23 -12 24 -12 11 4 -13 15 -12
17 13 12 15 -3 24 -1 21 5 -4 5 -11 7 -16 4 -5 -4 -9 -2 -9 4 0 6 -8 8 -17 5
-14 -5 -15 -4 -4 4 9 7 23 7 40 0 14 -5 22 -6 18 -2 -3 4 1 13 11 21 14 11 14
12 1 7 -10 -3 -19 1 -23 11 -3 10 -2 14 5 10 5 -4 22 1 37 11 15 10 30 17 35
16 4 -1 7 3 7 9 0 6 -7 9 -14 6 -10 -4 -13 -1 -9 8 3 8 10 12 16 8 6 -4 8 2 4
16 -4 18 -3 20 9 10 11 -9 14 -7 14 10 0 11 5 21 11 21 5 0 7 -4 4 -10 -3 -6
1 -7 10 -4 14 6 14 8 -2 21 -10 8 -12 12 -5 8 7 -4 12 0 12 9 0 10 -6 13 -17
10 -14 -5 -15 -4 -4 4 8 6 20 8 28 5 9 -3 11 0 7 10 -3 8 0 18 7 23 7 4 10 3
5 -4 -9 -16 14 -26 27 -13 9 9 8 11 -3 6 -11 -4 -16 1 -17 14 -1 13 3 18 13
14 9 -3 14 1 14 12 0 9 4 14 8 11 4 -2 14 -1 22 5 8 5 10 9 5 9 -6 0 -11 11
-11 25 0 20 2 22 15 12 12 -10 13 -9 3 10 -13 23 1 43 14 22 5 -8 3 -9 -6 -4
-9 5 -11 4 -6 -4 4 -6 12 -9 17 -5 6 3 8 8 5 12 -3 3 8 15 25 28 21 15 26 24
17 28 -10 4 -10 7 -1 12 7 3 9 13 6 22 -5 14 -3 15 8 4 7 -6 18 -12 23 -12 6
0 5 4 -3 9 -16 11 -5 34 12 24 7 -4 6 0 -2 10 -14 18 -26 23 -16 8 3 -5 1 -12
-4 -15 -8 -5 -8 15 -1 34 1 3 2 9 1 13 -1 5 3 6 9 2 5 -3 10 -2 10 3 0 6 9 8
20 5 21 -6 28 11 8 23 -7 4 -8 3 -4 -4 5 -8 1 -10 -10 -5 -11 4 -13 8 -6 11 7
2 9 9 5 15 -3 7 -3 9 2 5 12 -11 35 11 28 28 -3 7 -9 12 -13 9 -5 -3 -11 -2
-14 3 -8 13 28 11 37 -2 6 -7 7 -6 4 4 -2 8 3 24 12 34 9 11 10 16 4 12 -9 -5
-13 -1 -14 11 0 10 -2 28 -3 40 -1 12 1 20 5 17 4 -2 13 4 19 15 7 14 7 22 -2
27 -6 4 -8 3 -4 -4 3 -6 1 -14 -5 -18 -8 -4 -9 -3 -5 4 4 7 1 12 -6 12 -8 0
-6 5 5 11 13 7 15 14 8 23 -7 9 -4 12 12 13 12 1 17 -1 12 -5 -10 -7 -19 -32
-11 -32 2 0 11 12 21 26 9 15 12 23 6 20 -14 -9 -14 7 0 21 6 6 12 30 13 54 3
40 5 44 26 41 22 -4 23 -2 10 14 -12 15 -12 16 -1 9 20 -12 62 -15 55 -4 -3 5
0 9 6 9 6 0 8 4 5 10 -3 5 1 10 10 10 9 0 14 -4 10 -9 -3 -5 -1 -13 5 -16 6
-4 10 -3 9 2 -4 20 2 43 10 43 6 0 8 -9 6 -20 -2 -12 0 -18 6 -15 5 4 7 10 4
15 -3 5 4 14 15 20 11 6 20 7 20 3 0 -4 9 3 20 17 l20 25 -9 -26 c-7 -19 -6
-26 3 -26 7 0 13 7 12 15 0 8 9 16 22 18 13 2 21 0 17 -5 -3 -5 -1 -12 4 -15
10 -7 9 13 -2 31 -5 7 0 10 15 6 17 -4 19 -2 9 5 -11 8 -8 10 12 9 32 -2 33
-5 10 -24 -16 -13 -16 -13 5 -3 23 11 26 35 5 35 -6 0 -15 3 -19 7 -3 4 3 6
15 3 15 -3 21 1 21 13 0 14 2 15 9 2 6 -8 7 -18 4 -24 -3 -5 -1 -6 5 -2 6 3 9
15 7 26 -2 11 1 19 8 17 7 -1 11 5 9 13 -3 11 -1 12 8 4 13 -13 53 -7 45 7 -3
4 -13 5 -23 2 -16 -6 -16 -6 0 10 18 19 33 23 23 7 -3 -6 1 -10 10 -10 13 0
14 4 5 20 -7 14 -7 20 0 20 5 0 10 -4 10 -10 0 -5 5 -10 11 -10 5 0 7 5 3 12
-5 8 -2 9 10 5 10 -4 15 -3 11 3 -8 13 4 50 16 50 6 0 7 -4 4 -10 -3 -5 0 -7
9 -4 12 5 13 9 3 19 -7 7 -16 10 -22 7 -6 -3 -6 -1 -2 4 5 5 14 9 20 9 7 0 11
10 11 22 -1 15 3 20 13 16 12 -5 12 -7 1 -14 -7 -5 -8 -9 -3 -9 6 1 19 7 29
15 11 8 14 15 7 15 -7 0 -9 5 -5 12 4 7 3 8 -5 4 -6 -4 -8 -12 -5 -18 5 -7 2
-8 -5 -4 -9 6 -9 12 3 25 9 10 15 20 14 22 -2 2 3 -3 11 -11 15 -16 14 -13 -4
33 -4 10 -3 17 5 17 6 0 9 -4 6 -9 -3 -5 1 -14 8 -20 10 -9 16 -9 21 -1 4 6 3
10 -2 9 -22 -4 -24 3 -7 23 10 12 14 18 7 15 -18 -11 -21 14 -5 45 14 30 25
39 16 13 -4 -8 -2 -15 4 -15 6 0 9 8 7 18 -2 9 -4 17 -5 17 -1 0 -3 7 -5 17
-2 12 3 15 21 13 14 -1 22 0 19 3 -2 3 0 10 5 17 7 8 5 12 -5 12 -8 0 -12 -4
-9 -9 3 -4 -2 -8 -10 -8 -13 0 -14 3 -4 19 7 11 15 18 18 16 4 -2 7 2 7 10 0
8 -4 12 -8 10 -3 -3 -13 3 -20 13 -13 15 -12 16 4 3 10 -8 17 -9 17 -3 0 7 7
9 18 5 16 -7 16 -6 0 10 -17 17 -15 47 4 47 5 0 2 7 -6 16 -25 24 -19 28 12 8
26 -17 27 -17 12 1 -8 10 -14 21 -13 24 1 3 -1 8 -4 11 -4 3 -3 -1 2 -9 5 -10
4 -12 -4 -7 -15 9 -3 29 14 22 12 -4 12 3 3 69 -2 11 -7 24 -13 28 -6 5 -3 7
8 3 9 -3 17 -1 17 5 0 6 5 7 12 3 7 -4 8 -3 4 4 -4 6 -13 9 -21 6 -10 -4 -12
0 -8 17 4 15 3 20 -5 15 -18 -11 -14 0 5 15 14 12 16 12 8 0 -5 -9 -4 -12 3
-7 6 4 8 14 5 23 -4 9 -2 14 3 10 6 -3 11 3 11 14 2 18 0 18 -18 -3 -11 -13
-18 -18 -15 -11 4 6 3 13 -1 16 -5 2 -2 2 5 1 6 -2 12 6 12 17 0 11 4 18 8 15
4 -2 8 13 7 35 -1 23 -7 44 -16 50 -8 5 -9 9 -2 9 6 0 10 8 8 18 -2 9 -4 17
-5 17 -1 0 -3 14 -4 31 -2 20 2 30 9 28 6 -3 11 5 12 16 1 11 -3 20 -8 20 -6
0 -7 -4 -4 -10 3 -5 2 -10 -3 -10 -5 0 -8 15 -8 34 1 19 3 33 6 31 4 -2 11 5
18 15 6 11 8 21 4 24 -11 6 -9 57 3 75 5 9 4 12 -2 8 -6 -4 -19 3 -29 15 -11
12 -14 18 -8 15 7 -4 15 1 18 10 6 15 8 15 17 3 9 -13 10 -13 6 0 -2 8 -9 14
-15 13 -18 -4 -23 27 -5 34 15 6 14 7 -3 14 -17 7 -17 8 -1 8 13 1 16 7 13 25
-2 14 1 27 7 29 6 2 3 6 -7 10 -11 5 -15 3 -10 -5 4 -7 3 -8 -5 -4 -9 6 -9 11
0 22 6 7 16 11 22 7 6 -3 7 -1 3 6 -4 6 -11 9 -16 6 -4 -3 -11 2 -14 11 -5 12
-2 15 11 10 15 -5 15 -4 -1 9 -20 15 -20 15 0 16 10 0 13 3 7 6 -7 2 -13 11
-13 19 0 10 5 12 13 8 8 -5 8 -2 -2 9 -15 18 -26 23 -16 7 3 -5 2 -10 -4 -10
-5 0 -9 9 -8 20 1 23 7 25 27 8 9 -8 8 -5 -1 7 -9 11 -14 27 -11 35 5 13 3 13
-12 1 -9 -8 -19 -11 -23 -7 -3 3 -1 6 5 6 7 0 12 11 12 25 0 14 5 25 10 25 6
0 5 6 -2 14 -7 8 -15 14 -18 14 -3 0 -12 0 -20 1 -13 1 -13 3 -1 10 12 8 12
12 2 24 -9 12 -9 17 0 23 7 4 9 3 5 -4 -3 -6 -3 -13 2 -16 4 -2 8 6 8 19 0 16
-4 21 -15 17 -13 -4 -14 -2 -3 9 15 16 16 29 1 29 -5 0 -8 -4 -5 -8 3 -5 -1
-9 -8 -9 -11 0 -12 4 -3 19 7 10 15 18 20 18 4 0 5 5 2 10 -3 6 -11 10 -16 10
-6 0 -8 -4 -4 -9 3 -5 2 -12 -3 -15 -12 -7 -11 26 1 42 5 7 7 15 3 19 -3 3 -6
1 -6 -5 0 -7 -7 -12 -16 -12 -14 0 -14 3 -4 15 7 8 8 15 3 15 -5 0 -18 7 -29
16 -18 15 -18 15 3 5 16 -8 24 -8 29 1 4 6 3 9 -2 6 -5 -3 -20 6 -34 19 -15
15 -19 23 -10 21 10 -2 14 4 12 17 -2 16 -1 17 7 5 9 -13 11 -13 11 3 0 9 6
17 13 17 8 0 8 3 -2 9 -12 8 -12 12 -2 25 8 10 9 16 3 16 -6 0 -16 -8 -22 -17
-6 -10 -9 -11 -6 -3 3 8 9 23 12 33 4 9 11 17 16 17 5 0 6 -5 2 -12 -5 -7 -3
-8 5 -3 9 5 9 11 3 17 -6 6 -8 17 -5 26 4 9 2 13 -4 9 -5 -3 -10 0 -10 8 0 8
4 12 9 8 6 -3 7 8 5 26 -3 18 -1 30 5 28 6 -1 11 8 13 20 1 12 -2 20 -7 17 -4
-3 -8 2 -8 11 0 10 -5 14 -12 10 -7 -4 -2 3 11 14 13 12 18 21 12 21 -6 0 -11
7 -11 16 0 9 -5 13 -12 9 -7 -4 -2 3 12 14 l25 20 -25 -4 -25 -4 23 19 c13 11
18 21 12 25 -5 3 -10 1 -10 -4 0 -6 -5 -11 -11 -11 -7 0 -4 11 6 26 9 15 12
23 5 19 -9 -5 -10 -1 -5 14 3 11 2 21 -3 21 -6 0 -12 7 -16 15 -5 13 -2 14 17
4 l22 -12 -20 23 c-11 13 -15 20 -8 17 6 -4 15 -2 19 4 4 8 3 9 -4 5 -8 -4
-12 0 -12 11 0 15 -2 16 -11 3 -9 -12 -10 -12 -5 3 3 10 6 20 6 23 0 2 6 2 13
0 6 -1 9 -1 4 1 -4 3 -4 10 0 16 4 7 0 8 -13 4 -18 -7 -18 -7 0 8 11 8 15 15
9 15 -6 0 -14 7 -17 16 -5 13 -3 14 7 6 10 -8 13 -6 13 8 0 10 -4 16 -8 14
-13 -8 -9 11 5 25 10 11 7 12 -13 7 -21 -6 -22 -5 -7 4 9 6 15 16 12 21 -4 5
-11 6 -17 3 -7 -4 -8 -2 -4 4 4 6 14 9 24 6 9 -3 6 2 -8 11 -25 16 -25 16 -2
11 23 -4 23 -4 7 14 -10 11 -23 17 -29 13 -6 -4 -5 0 2 9 9 11 10 18 2 23 -5
3 -10 11 -10 16 0 6 7 3 16 -5 20 -21 21 -21 17 12 -4 46 -8 59 -23 78 -14 16
-13 16 10 4 20 -10 23 -10 13 0 -9 9 -9 19 -2 34 10 20 10 20 -5 2 -15 -18
-16 -18 -16 -2 0 11 -4 15 -12 10 -10 -6 -10 -5 -1 7 10 12 10 18 0 28 -9 9
-9 13 0 19 7 5 10 20 7 37 -4 25 -3 27 11 15 8 -7 15 -8 15 -4 0 5 -9 15 -20
22 -13 8 -20 8 -20 1 0 -5 -5 -7 -11 -3 -14 9 9 24 27 17 6 -2 15 0 19 6 4 7
0 8 -11 4 -12 -5 -15 -3 -9 6 6 10 2 11 -16 6 -18 -5 -20 -4 -9 4 8 6 15 21
15 34 1 19 -4 23 -22 21 -13 -1 -26 2 -29 7 -3 5 0 8 7 7 8 -2 13 9 14 30 2
22 -2 32 -10 28 -6 -2 -18 0 -26 5 -10 6 -11 9 -1 9 10 0 10 5 2 21 -9 15 -8
24 1 35 9 11 9 14 -2 14 -8 0 -23 8 -34 17 -16 13 -17 15 -2 10 11 -4 17 -1
17 9 0 10 -6 14 -15 10 -19 -7 -22 11 -12 76 3 19 0 25 -9 21 -8 -3 -11 -9 -8
-14 3 -5 1 -9 -4 -9 -15 0 -21 25 -12 41 5 8 5 16 -1 20 -6 3 -12 15 -13 25
-2 11 -11 18 -20 18 -13 -2 -14 1 -6 11 8 10 8 15 -1 21 -8 4 -9 3 -5 -4 4 -7
2 -12 -3 -12 -14 0 -14 17 -1 25 6 3 5 15 -2 31 -8 18 -17 23 -32 19 -12 -3
-15 -2 -8 1 6 3 12 12 12 19 0 7 6 16 13 19 6 3 3 4 -9 1 -11 -3 -28 1 -38 8
-16 12 -16 13 3 13 11 0 17 -5 14 -10 -3 -5 -1 -6 6 -2 6 4 9 12 5 17 -3 5
-10 6 -16 3 -6 -4 -8 2 -4 17 6 21 5 21 -4 6 -13 -20 -30 -14 -29 11 0 14 2
13 10 -3 l9 -20 -2 20 c-2 11 1 27 6 35 7 12 6 13 -5 3 -7 -7 -19 -13 -27 -13
-10 0 -10 3 2 16 17 17 20 25 9 23 -19 -3 -27 2 -15 10 9 5 2 8 -18 9 -42 1
-75 29 -58 49 9 12 9 14 -3 13 -27 -4 -40 0 -33 11 4 8 9 7 16 -2 8 -11 9 -11
5 1 -2 8 -10 14 -16 12 -6 -1 -11 2 -11 8 0 5 -4 10 -9 10 -5 0 -7 -10 -5 -22
4 -21 4 -21 -5 -3 -5 12 -5 27 1 39 7 13 7 16 -1 12 -6 -4 -11 -2 -11 4 0 6
-5 8 -11 4 -8 -4 -7 -9 2 -16 11 -8 11 -9 -1 -5 -8 2 -14 10 -12 16 1 6 -3 11
-9 11 -8 0 -7 6 2 17 13 15 12 15 -8 5 -16 -9 -24 -9 -29 0 -5 7 -3 8 6 3 9
-5 11 -4 6 3 -4 7 -14 12 -22 12 -8 0 -12 5 -9 11 4 6 0 9 -11 7 -15 -2 -19 3
-17 27 1 17 -1 22 -4 13 -2 -10 -11 -18 -19 -18 -12 0 -13 4 -3 23 11 20 11
21 -4 8 -14 -11 -17 -11 -18 0 -1 8 -1 17 0 22 0 4 -2 6 -6 6 -21 -3 -33 2
-27 13 4 7 3 8 -4 4 -6 -4 -8 -14 -5 -24 8 -22 -1 -13 -17 17 -6 13 -7 21 -2
17 6 -3 14 -1 18 6 4 7 4 10 -1 6 -4 -4 -14 -3 -22 3 -10 9 -13 8 -13 -5 0 -9
-5 -16 -11 -16 -6 0 -8 9 -4 21 6 19 5 20 -17 9 -19 -10 -21 -10 -10 1 17 18
15 34 -3 19 -12 -10 -15 -10 -15 4 0 9 5 16 11 16 5 0 7 5 4 11 -5 6 -11 4
-19 -7 -15 -20 -38 -11 -29 11 3 10 -1 15 -12 15 -10 0 -13 -5 -9 -12 4 -7 3
-8 -4 -4 -6 4 -9 13 -6 21 5 12 -1 14 -26 11 l-31 -4 23 26 23 25 -26 -17
c-23 -15 -28 -15 -39 -1 -7 8 -16 12 -21 10 -4 -3 -6 7 -3 22 l4 28 -15 -25
c-15 -23 -15 -23 -10 -2 5 16 2 22 -9 22 -9 0 -13 -6 -10 -14 3 -8 1 -16 -4
-20 -10 -6 -9 24 1 41 4 6 2 15 -4 19 -7 4 -9 3 -6 -3 4 -6 0 -13 -8 -17 -18
-7 -19 -2 -4 27 l12 22 -20 -20 c-11 -11 -19 -23 -16 -27 2 -4 -3 -5 -13 -1
-14 5 -15 7 -1 15 9 5 14 15 11 23 -4 8 -10 13 -14 10 -5 -3 -11 -1 -15 4 -3
6 -13 7 -22 4 -10 -4 -14 -2 -10 4 4 6 -3 9 -18 7 -14 -1 -27 2 -30 6 -3 5
-14 7 -25 5 -13 -3 -17 1 -13 12 3 8 9 11 12 6 3 -4 11 -9 18 -10 13 -3 12 22
-2 34 -4 4 -5 3 -2 -3 5 -8 -3 -11 -23 -9 -28 2 -37 12 -23 25 4 3 3 -1 -2 -9
-6 -10 -4 -12 4 -7 20 12 3 21 -35 17 -19 -1 -34 2 -34 8 0 6 6 8 14 5 8 -3
17 -1 20 4 3 5 -2 9 -12 8 -9 0 -16 5 -15 12 2 6 -2 12 -8 12 -6 0 -9 -6 -6
-14 3 -8 -2 -20 -11 -28 -15 -12 -16 -11 -4 4 9 11 10 18 2 23 -6 3 -7 11 -4
17 4 6 2 8 -4 4 -6 -3 -13 -2 -17 4 -3 5 -12 10 -18 10 -7 0 -6 -4 3 -10 11
-8 9 -9 -10 -6 -14 3 -29 5 -33 5 -5 1 -5 6 -2 11 3 6 -1 10 -11 10 -9 0 -24
8 -33 18 -17 19 -56 38 -46 23 3 -5 1 -12 -5 -16 -5 -3 -10 2 -10 11 0 16 -1
16 -15 -2 -15 -18 -15 -18 -8 0 5 15 3 17 -8 11 -12 -7 -12 -6 -1 7 10 13 10
18 1 24 -8 5 -9 3 -4 -6 6 -10 4 -12 -8 -7 -9 3 -19 1 -23 -5 -5 -7 -2 -8 6
-3 9 6 11 4 6 -4 -10 -15 -21 -6 -21 17 0 9 -9 18 -20 19 -16 1 -16 1 -2 -3
15 -5 25 -24 11 -24 -17 0 -44 23 -38 32 4 7 3 8 -4 4 -15 -9 -15 -12 4 -30 8
-9 10 -16 4 -16 -6 0 -13 7 -16 15 -7 18 -60 20 -68 3 -3 -7 -3 -3 0 10 4 15
1 22 -8 20 -7 -2 -12 2 -11 7 1 6 -7 11 -18 11 -25 0 -25 -12 1 -19 11 -3 20
-13 20 -24 -1 -17 -1 -17 -11 1 -9 15 -13 16 -20 5 -7 -11 -9 -11 -9 -1 0 7
-5 10 -12 6 -7 -4 -8 -3 -4 4 4 7 2 12 -3 12 -6 0 -11 -5 -11 -12 0 -6 -7 -3
-16 8 -14 18 -15 18 -9 -6 5 -22 4 -23 -5 -7 -10 15 -14 16 -27 6 -12 -11 -14
-10 -11 6 1 10 -4 20 -12 22 -13 4 -13 3 0 -6 12 -8 7 -11 -22 -11 -48 0 -54
2 -50 18 2 6 -2 12 -8 12 -6 0 -9 -4 -6 -8 2 -4 1 -14 -4 -21 -6 -10 -10 -8
-15 8 -6 21 -7 22 -21 4 -8 -10 -14 -13 -13 -8 3 24 -2 27 -17 9 -14 -18 -15
-18 -10 6 3 14 3 19 0 13 -3 -7 -15 -13 -25 -13 -13 0 -18 -4 -13 -12 4 -7 3
-8 -5 -4 -6 4 -8 12 -5 18 4 6 1 8 -7 6 -8 -3 -13 -11 -11 -17 1 -7 -2 -10 -7
-6 -6 3 -7 13 -4 23 3 9 3 14 -2 10 -4 -4 -14 -3 -22 4 -10 8 -12 8 -8 -4 4
-9 0 -15 -10 -15 -10 0 -14 7 -10 21 3 12 2 15 -1 9 -4 -9 -11 -10 -25 -3 -10
6 -19 8 -19 4 0 -3 -6 -1 -13 5 -10 8 -14 7 -14 -3 0 -8 8 -13 17 -11 9 2 23
-1 30 -5 9 -6 2 -8 -19 -6 -19 1 -40 11 -47 21 -8 10 -14 13 -14 7 0 -7 -5
-12 -11 -12 -5 0 -8 4 -4 9 3 5 1 13 -5 16 -6 4 -9 1 -8 -6 2 -6 -3 -14 -11
-17 -9 -3 -11 0 -7 9 4 8 0 5 -8 -5 -9 -11 -16 -16 -16 -10 0 5 -5 2 -10 -6
-7 -11 -10 -11 -10 -2 0 7 -5 10 -11 6 -8 -4 -9 1 -5 17 l7 24 -14 -24 c-8
-14 -16 -19 -18 -12 -3 7 -20 13 -39 14 -19 1 -38 6 -42 12 -5 7 -8 7 -8 0 0
-6 -9 -11 -20 -12 -13 -1 -18 2 -14 9 4 7 2 8 -4 4 -7 -4 -12 -15 -12 -24 -1
-16 -1 -16 -11 0 -5 9 -16 15 -24 12 -8 -4 -13 -9 -11 -13 2 -3 -9 -7 -25 -7
-26 -2 -34 6 -30 29 2 12 -17 8 -22 -5 -3 -10 -8 -10 -23 2 -17 13 -17 13 1
-9z m219 -13 c-3 -5 -9 -6 -14 -3 -4 3 -10 0 -12 -7 -3 -8 -6 -7 -10 3 -4 11
1 15 17 15 13 0 21 -4 19 -8z m198 -20 c-7 -7 -12 -8 -12 -2 0 14 12 26 19 19
2 -3 -1 -11 -7 -17z m-1100 -120 c-7 -7 -12 -8 -12 -2 0 14 12 26 19 19 2 -3
-1 -11 -7 -17z m1918 7 c7 -8 9 -15 6 -15 -4 0 -14 7 -22 15 -9 8 -11 15 -6
15 5 0 15 -7 22 -15z m130 -66 c0 -5 -4 -9 -8 -9 -5 0 -9 7 -9 15 0 8 4 12 9
9 4 -3 8 -9 8 -15z m-2373 -69 c1 -16 -1 -17 -12 -7 -11 10 -8 19 10 27 1 0 1
-9 2 -20z m2629 -67 c-6 -6 -36 9 -36 18 0 5 9 4 20 -3 10 -7 18 -14 16 -15z
m-2940 -119 c-4 -9 -9 -15 -11 -12 -3 3 -3 13 1 22 4 9 9 15 11 12 3 -3 3 -13
-1 -22z m3329 -153 c3 -5 2 -12 -3 -15 -5 -3 -9 1 -9 9 0 17 3 19 12 6z
m-3565 -41 c0 -5 -5 -10 -11 -10 -5 0 -7 5 -4 10 3 6 8 10 11 10 2 0 4 -4 4
-10z m3879 -244 c9 -10 8 -15 -2 -19 -8 -3 -13 3 -13 14 0 23 0 23 15 5z m105
-192 c5 -14 4 -15 -9 -4 -17 14 -19 20 -6 20 5 0 12 -7 15 -16z m33 -126 c-3
-7 -5 -2 -5 12 0 14 2 19 5 13 2 -7 2 -19 0 -25z m48 -48 c-3 -5 -12 -10 -18
-10 -7 0 -6 4 3 10 19 12 23 12 15 0z m85 -216 c0 -8 -19 -13 -24 -6 -3 5 1 9
9 9 8 0 15 -2 15 -3z m30 -85 c0 -5 -4 -9 -8 -9 -5 0 -9 7 -9 15 0 8 4 12 9 9
4 -3 8 -9 8 -15z m-3 -94 c0 -8 -4 -12 -9 -9 -5 3 -6 10 -3 15 9 13 12 11 12
-6z m-4926 -38 c-10 -9 -11 -8 -5 6 3 10 9 15 12 12 3 -3 0 -11 -7 -18z m4949
-127 c6 -11 8 -20 6 -20 -3 0 -10 9 -16 20 -6 11 -8 20 -6 20 3 0 10 -9 16
-20z m40 -640 c8 -15 8 -18 -3 -14 -8 3 -14 11 -14 19 0 20 4 19 17 -5z
m-4971 -100 c11 -24 11 -24 -3 -6 -9 11 -16 24 -16 30 0 12 5 7 19 -24z m66
-220 c3 -6 -1 -7 -9 -4 -18 7 -21 14 -7 14 6 0 13 -4 16 -10z m4885 -4 c0 -2
-8 -10 -17 -17 -16 -13 -17 -12 -4 4 13 16 21 21 21 13z m104 -502 c3 -8 2
-12 -4 -9 -6 3 -10 10 -10 16 0 14 7 11 14 -7z m-4999 -134 c3 -5 1 -10 -4
-10 -6 0 -11 5 -11 10 0 6 2 10 4 10 3 0 8 -4 11 -10z m5001 -38 c0 -17 -5
-29 -13 -29 -9 0 -10 4 -3 12 6 7 8 20 4 29 -3 9 -2 16 3 16 5 0 9 -13 9 -28z
m8 -63 c-8 -14 -21 -11 -21 5 0 8 6 12 14 9 7 -3 10 -9 7 -14z m-5019 -179
c-3 -5 -11 -10 -16 -10 -6 0 -7 5 -4 10 3 6 11 10 16 10 6 0 7 -4 4 -10z
m5005 6 c0 -3 -4 -8 -10 -11 -5 -3 -10 -1 -10 4 0 6 5 11 10 11 6 0 10 -2 10
-4z m6 -81 c-5 -26 -25 -66 -26 -50 0 6 5 17 10 25 6 10 4 21 -8 35 -16 19
-16 19 2 5 18 -14 19 -13 13 3 -4 11 -3 16 3 12 6 -4 8 -17 6 -30z m-5022 -65
c-6 -6 -15 -5 -24 1 -13 9 -12 10 3 5 9 -3 17 0 17 6 0 6 3 8 7 5 4 -4 2 -12
-3 -17z m6 -66 c0 -2 -9 0 -20 6 -11 6 -20 13 -20 16 0 2 9 0 20 -6 11 -6 20
-13 20 -16z m-20 -104 c-12 -8 -13 -10 -1 -10 8 0 12 -3 8 -6 -12 -12 -28 7
-18 20 6 7 9 15 7 18 -1 3 2 1 8 -4 8 -6 6 -12 -4 -18z m5016 -15 c1 -9 -4
-11 -14 -7 -10 4 -12 7 -4 10 7 2 9 9 5 15 -3 7 -2 8 2 4 5 -4 10 -14 11 -22z
m-4958 -270 c-3 -3 -9 2 -12 12 -6 14 -5 15 5 6 7 -7 10 -15 7 -18z m4857 -85
c3 -6 -1 -7 -9 -4 -18 7 -21 14 -7 14 6 0 13 -4 16 -10z m-4845 -40 c0 -5 -2
-10 -4 -10 -3 0 -8 5 -11 10 -3 6 -1 10 4 10 6 0 11 -4 11 -10z m30 -110 c8
-5 12 -10 8 -10 -4 0 -3 -11 2 -25 7 -19 6 -23 -5 -18 -8 3 -13 9 -10 13 10
16 -6 39 -22 33 -11 -4 -14 -2 -9 5 9 14 16 15 36 2z m93 -155 c4 -8 1 -17 -6
-21 -7 -4 -9 -4 -5 1 4 4 3 14 -3 22 -7 8 -8 13 -1 13 5 0 12 -7 15 -15z
m4177 -129 c-7 -7 -15 -4 -25 7 -8 9 -10 12 -3 7 18 -15 28 -12 22 8 -5 14 -4
15 5 2 6 -10 7 -18 1 -24z m-86 -78 c-5 -39 -28 -67 -39 -47 -5 7 -4 10 3 5 9
-5 23 18 27 49 4 21 5 25 9 25 2 0 2 -14 0 -32z m-3944 -146 c0 -13 -12 -22
-22 -16 -10 6 -1 24 13 24 5 0 9 -4 9 -8z m3890 -88 c0 -8 -19 -13 -24 -6 -3
5 1 9 9 9 8 0 15 -2 15 -3z m-3840 -214 c0 -5 -5 -10 -11 -10 -5 0 -7 5 -4 10
3 6 8 10 11 10 2 0 4 -4 4 -10z m3713 -47 c-9 -7 -22 -13 -27 -13 -6 1 0 7 14
15 14 8 19 14 12 15 -7 0 -10 5 -6 11 4 8 9 7 15 -2 6 -9 3 -18 -8 -26z m-66
-98 c0 -8 -4 -12 -9 -9 -4 3 -8 9 -8 15 0 5 4 9 8 9 5 0 9 -7 9 -15z m-27 -15
c0 -5 -5 -10 -11 -10 -5 0 -7 5 -4 10 3 6 8 10 11 10 2 0 4 -4 4 -10z m-3500
-80 c0 -5 -2 -10 -4 -10 -3 0 -8 5 -11 10 -3 6 -1 10 4 10 6 0 11 -4 11 -10z
m3365 -110 c-1 -11 -4 -22 -7 -25 -4 -5 -4 34 1 43 4 8 7 -1 6 -18z m-50 -70
c3 -5 1 -10 -4 -10 -6 0 -11 5 -11 10 0 6 2 10 4 10 3 0 8 -4 11 -10z m-3195
-36 c0 -14 2 -15 18 -3 15 13 16 12 4 -3 -13 -17 -28 -18 -51 -4 -11 7 -11 10
0 17 21 13 29 11 29 -7z m3060 -84 c0 -5 -2 -10 -4 -10 -3 0 -8 5 -11 10 -3 6
-1 10 4 10 6 0 11 -4 11 -10z m-2941 -51 c-13 -8 -5 -13 14 -10 5 1 6 -3 2 -9
-5 -8 -11 -8 -20 0 -15 13 -9 43 7 34 6 -4 5 -10 -3 -15z m91 -114 c11 -13 10
-14 -4 -9 -9 3 -16 10 -16 15 0 13 6 11 20 -6z m51 -52 c13 -16 12 -17 -3 -4
-17 13 -22 21 -14 21 2 0 10 -8 17 -17z m2446 -161 c-8 -10 -17 -24 -20 -32
-5 -13 -6 -12 -6 1 -1 9 6 22 14 29 8 7 12 17 8 23 -4 6 -1 7 6 3 9 -6 9 -12
-2 -24z m-44 -37 c4 -8 1 -17 -5 -21 -7 -4 -8 -3 -4 4 4 7 2 12 -4 12 -6 0 -8
5 -5 10 8 14 12 13 18 -5z m-78 -95 c3 -6 -1 -7 -9 -4 -18 7 -21 14 -7 14 6 0
13 -4 16 -10z m-2106 -7 c-3 -20 2 -34 11 -28 6 3 10 1 10 -4 0 -16 -20 -13
-26 4 -4 8 -10 12 -15 9 -5 -3 -6 2 -3 10 6 16 25 23 23 9z m21 -63 c0 -5 -2
-10 -4 -10 -3 0 -8 5 -11 10 -3 6 -1 10 4 10 6 0 11 -4 11 -10z m361 -257 c7
-10 9 -15 5 -11 -5 4 -15 0 -23 -10 -13 -15 -13 -15 -4 4 6 12 7 24 4 28 -3 3
-4 6 -1 6 3 0 12 -8 19 -17z m-38 -13 c-3 -11 -9 -17 -15 -14 -5 3 -4 12 3 20
16 19 18 18 12 -6z m1357 -10 c0 -5 -5 -10 -11 -10 -5 0 -7 5 -4 10 3 6 8 10
11 10 2 0 4 -4 4 -10z m-1080 -91 c0 -14 -17 -10 -23 5 -4 10 -1 13 9 9 7 -3
14 -9 14 -14z m60 -4 c10 -14 10 -17 1 -8 -7 6 -20 9 -27 6 -8 -3 -14 0 -14 7
0 6 5 8 10 5 6 -3 10 -1 10 6 0 7 1 10 3 8 1 -2 9 -13 17 -24z m618 -10 c-3
-3 -9 2 -12 12 -6 14 -5 15 5 6 7 -7 10 -15 7 -18z"/>
<path d="M3363 6967 c0 -8 6 -14 14 -14 9 0 10 4 2 14 -6 7 -12 13 -14 13 -1
0 -2 -6 -2 -13z"/>
<path d="M3131 6952 c-7 -13 -6 -19 2 -19 7 0 13 9 13 19 0 10 -1 18 -3 18 -1
0 -7 -8 -12 -18z"/>
<path d="M3630 6959 c0 -5 5 -7 10 -4 6 3 10 8 10 11 0 2 -4 4 -10 4 -5 0 -10
-5 -10 -11z"/>
<path d="M2450 6790 c-9 -6 -10 -10 -3 -10 6 0 15 5 18 10 8 12 4 12 -15 0z"/>
<path d="M2370 6738 c0 -5 -4 -6 -10 -3 -5 3 -10 -1 -10 -10 0 -14 2 -14 25 1
29 19 30 21 10 21 -8 0 -15 -4 -15 -9z"/>
<path d="M4836 6672 c-3 -5 1 -9 9 -9 8 0 15 4 15 9 0 4 -4 8 -9 8 -6 0 -12
-4 -15 -8z"/>
<path d="M2126 6632 c-3 -5 1 -9 9 -9 8 0 15 4 15 9 0 4 -4 8 -9 8 -6 0 -12
-4 -15 -8z"/>
<path d="M2047 6575 c3 -8 9 -12 14 -9 12 7 11 11 -5 17 -10 4 -13 1 -9 -8z"/>
<path d="M2015 6570 c-3 -5 -1 -10 4 -10 6 0 11 5 11 10 0 6 -2 10 -4 10 -3 0
-8 -4 -11 -10z"/>
<path d="M5041 6559 c0 -9 6 -22 14 -29 10 -9 15 -9 15 -1 0 6 -4 11 -9 11 -5
0 -12 8 -14 18 -4 14 -5 14 -6 1z"/>
<path d="M1980 6556 c0 -2 8 -10 18 -17 15 -13 16 -12 3 4 -13 16 -21 21 -21
13z"/>
<path d="M1890 6467 c0 -5 6 -7 14 -4 8 3 16 1 18 -5 2 -6 9 -4 16 5 11 12 8
15 -18 13 -16 0 -30 -5 -30 -9z"/>
<path d="M1810 6390 c0 -5 5 -10 10 -10 6 0 10 5 10 10 0 6 -4 10 -10 10 -5 0
-10 -4 -10 -10z"/>
<path d="M1696 6303 c-6 -14 -5 -15 5 -6 7 7 10 15 7 18 -3 3 -9 -2 -12 -12z"/>
<path d="M1606 6203 c-6 -14 -5 -15 5 -6 7 7 10 15 7 18 -3 3 -9 -2 -12 -12z"/>
<path d="M1550 6171 c0 -5 7 -11 14 -14 10 -4 13 -1 9 9 -6 15 -23 19 -23 5z"/>
<path d="M1503 6135 c1 -15 -3 -19 -18 -17 -16 2 -17 1 -5 -7 13 -10 13 -11 0
-12 -8 -1 -18 -1 -22 0 -5 0 -8 -6 -8 -15 0 -13 7 -11 34 9 18 15 36 24 38 22
3 -3 5 2 5 10 0 8 -4 12 -8 9 -4 -2 -10 2 -13 8 -3 7 -4 4 -3 -7z"/>
<path d="M5572 6125 c-10 -12 -9 -16 7 -25 25 -13 42 -13 19 1 -10 5 -15 16
-12 24 8 19 3 19 -14 0z"/>
<path d="M1216 5883 c3 -13 1 -23 -4 -23 -5 0 -9 -7 -9 -15 0 -22 5 -19 23 16
8 17 11 28 6 25 -6 -3 -13 0 -16 6 -3 7 -3 3 0 -9z"/>
<path d="M5790 5789 c0 -5 5 -7 10 -4 6 3 10 8 10 11 0 2 -4 4 -10 4 -5 0 -10
-5 -10 -11z"/>
<path d="M5830 5675 c-7 -9 -8 -15 -2 -15 5 0 12 7 16 15 3 8 4 15 2 15 -2 0
-9 -7 -16 -15z"/>
<path d="M5828 5643 c7 -3 16 -2 19 1 4 3 -2 6 -13 5 -11 0 -14 -3 -6 -6z"/>
<path d="M5876 5545 c3 -11 7 -26 7 -32 0 -9 4 -10 14 -2 7 6 13 17 12 23 0 6
-3 5 -6 -3 -4 -10 -9 -8 -20 10 -10 17 -12 18 -7 4z"/>
<path d="M5913 5445 c0 -8 4 -12 9 -9 4 3 8 9 8 15 0 5 -4 9 -8 9 -5 0 -9 -7
-9 -15z"/>
<path d="M5945 5251 c-3 -6 4 -15 15 -21 13 -7 20 -7 20 0 0 5 -8 10 -17 10
-15 0 -16 2 -3 10 9 6 10 10 3 10 -6 0 -14 -4 -18 -9z"/>
<path d="M5965 5030 c3 -5 8 -10 11 -10 2 0 4 5 4 10 0 6 -5 10 -11 10 -5 0
-7 -4 -4 -10z"/>
<path d="M950 4990 c0 -5 5 -10 11 -10 5 0 7 5 4 10 -3 6 -8 10 -11 10 -2 0
-4 -4 -4 -10z"/>
<path d="M931 4797 c-8 -10 -7 -14 4 -14 8 0 12 4 9 8 -2 4 2 10 8 12 8 4 9 6
2 6 -6 1 -17 -5 -23 -12z"/>
<path d="M958 4513 c7 -3 16 -2 19 1 4 3 -2 6 -13 5 -11 0 -14 -3 -6 -6z"/>
<path d="M1008 4343 c7 -3 16 -2 19 1 4 3 -2 6 -13 5 -11 0 -14 -3 -6 -6z"/>
<path d="M1035 4239 c-10 -15 3 -25 16 -12 7 7 7 13 1 17 -6 3 -14 1 -17 -5z"/>
<path d="M5960 4230 c-9 -6 -10 -10 -3 -10 6 0 15 5 18 10 8 12 4 12 -15 0z"/>
<path d="M1065 4050 c-3 -6 1 -7 9 -4 18 7 21 14 7 14 -6 0 -13 -4 -16 -10z"/>
<path d="M6039 3983 c-13 -16 -12 -17 4 -4 16 13 21 21 13 21 -2 0 -10 -8 -17
-17z"/>
<path d="M1066 3731 c-4 -5 1 -8 9 -7 21 3 31 16 12 16 -9 0 -18 -4 -21 -9z"/>
<path d="M6078 3603 c7 -3 16 -2 19 1 4 3 -2 6 -13 5 -11 0 -14 -3 -6 -6z"/>
<path d="M1045 3489 c-4 -6 -5 -12 -2 -15 2 -3 7 2 10 11 7 17 1 20 -8 4z"/>
<path d="M6092 3390 c0 -14 2 -19 5 -12 2 6 2 18 0 25 -3 6 -5 1 -5 -13z"/>
<path d="M1028 3283 c7 -3 16 -2 19 1 4 3 -2 6 -13 5 -11 0 -14 -3 -6 -6z"/>
<path d="M6074 3279 c-4 -7 -3 -9 4 -5 6 3 13 -2 15 -11 4 -16 5 -16 6 -1 1
21 -15 32 -25 17z"/>
<path d="M6093 3225 c0 -8 4 -12 9 -9 5 3 6 10 3 15 -9 13 -12 11 -12 -6z"/>
<path d="M1023 3154 c0 -16 13 -19 21 -5 3 5 0 11 -7 14 -8 3 -14 -1 -14 -9z"/>
<path d="M1001 2994 c0 -11 3 -14 6 -6 3 7 2 16 -1 19 -3 4 -6 -2 -5 -13z"/>
<path d="M6070 2969 c0 -5 5 -7 10 -4 6 3 10 8 10 11 0 2 -4 4 -10 4 -5 0 -10
-5 -10 -11z"/>
<path d="M6040 2810 c-9 -6 -10 -10 -3 -10 6 0 15 5 18 10 8 12 4 12 -15 0z"/>
<path d="M5994 2669 c-4 -7 -3 -9 4 -5 5 3 13 0 15 -6 4 -9 6 -10 6 -1 1 17
-16 25 -25 12z"/>
<path d="M5965 2600 c-2 -3 5 -6 15 -7 11 -1 22 2 24 5 3 4 -4 8 -15 8 -11 0
-22 -3 -24 -6z"/>
<path d="M1081 2474 c0 -11 3 -14 6 -6 3 7 2 16 -1 19 -3 4 -6 -2 -5 -13z"/>
<path d="M5890 2430 c0 -5 5 -10 10 -10 6 0 10 5 10 10 0 6 -4 10 -10 10 -5 0
-10 -4 -10 -10z"/>
<path d="M5734 2279 c-3 -6 -3 -13 0 -16 3 -4 6 -1 6 5 0 6 7 9 15 6 8 -4 15
-4 15 -1 0 11 -30 16 -36 6z"/>
<path d="M5515 2170 c-3 -5 -1 -10 4 -10 6 0 11 5 11 10 0 6 -2 10 -4 10 -3 0
-8 -4 -11 -10z"/>
<path d="M5350 2071 c0 -6 4 -13 10 -16 6 -3 7 1 4 9 -7 18 -14 21 -14 7z"/>
<path d="M5276 1883 c-6 -14 -5 -15 5 -6 7 7 10 15 7 18 -3 3 -9 -2 -12 -12z"/>
<path d="M1362 1756 c7 -8 15 -12 17 -11 5 6 -10 25 -20 25 -5 0 -4 -6 3 -14z"/>
<path d="M5259 1743 c-13 -16 -12 -17 4 -4 16 13 21 21 13 21 -2 0 -10 -8 -17
-17z"/>
<path d="M5205 1680 c-3 -5 -1 -10 4 -10 6 0 11 5 11 10 0 6 -2 10 -4 10 -3 0
-8 -4 -11 -10z"/>
<path d="M1476 1392 c-3 -5 1 -9 9 -9 8 0 15 4 15 9 0 4 -4 8 -9 8 -6 0 -12
-4 -15 -8z"/>
<path d="M1535 1270 c3 -5 8 -10 11 -10 2 0 4 5 4 10 0 6 -5 10 -11 10 -5 0
-7 -4 -4 -10z"/>
<path d="M1698 1078 c-12 -7 -5 -10 18 -7 4 0 10 -5 15 -13 6 -9 8 -7 7 8 -2
22 -18 27 -40 12z"/>
<path d="M4710 1000 c0 -5 5 -10 11 -10 5 0 7 5 4 10 -3 6 -8 10 -11 10 -2 0
-4 -4 -4 -10z"/>
<path d="M1856 867 c3 -10 9 -15 12 -12 3 3 0 11 -7 18 -10 9 -11 8 -5 -6z"/>
<path d="M1916 802 c-3 -5 1 -9 9 -9 8 0 12 4 9 9 -3 4 -7 8 -9 8 -2 0 -6 -4
-9 -8z"/>
<path d="M1980 688 c0 -6 3 -8 6 -5 13 13 43 -13 37 -31 -6 -16 -6 -16 10 0
19 18 23 33 7 23 -6 -3 -12 0 -15 7 -7 17 -45 21 -45 6z"/>
<path d="M4305 599 c-11 -16 -1 -19 13 -3 7 8 8 14 3 14 -5 0 -13 -5 -16 -11z"/>
<path d="M2155 450 c-3 -5 -1 -10 4 -10 6 0 11 5 11 10 0 6 -2 10 -4 10 -3 0
-8 -4 -11 -10z"/>
<path d="M4113 411 c-8 -13 -9 -22 -3 -26 6 -4 9 -1 8 6 -2 7 2 13 9 14 6 0
15 4 20 9 4 5 3 6 -4 3 -6 -4 -13 -3 -15 3 -2 6 -9 1 -15 -9z"/>
<path d="M2285 350 c-3 -5 1 -10 10 -10 9 0 13 5 10 10 -3 6 -8 10 -10 10 -2
0 -7 -4 -10 -10z"/>
<path d="M2277 319 c7 -7 15 -10 18 -7 3 3 -2 9 -12 12 -14 6 -15 5 -6 -5z"/>
<path d="M2334 315 c-4 -8 -9 -13 -13 -10 -4 2 -8 -2 -8 -10 0 -23 13 -18 25
10 6 14 9 25 6 25 -2 0 -7 -7 -10 -15z"/>
<path d="M2357 281 c-15 -6 -15 -7 3 -18 16 -11 18 -10 13 3 -5 14 -3 14 14 3
16 -9 18 -15 9 -25 -6 -6 -15 -9 -21 -6 -5 3 -6 1 -2 -3 10 -12 38 -15 31 -4
-3 5 -1 9 4 9 11 0 26 -30 23 -47 -1 -6 2 -14 7 -17 10 -6 9 24 -2 42 -4 6 -5
16 -2 21 9 13 -57 49 -77 42z"/>
<path d="M2466 168 c3 -5 10 -6 15 -3 13 9 11 12 -6 12 -8 0 -12 -4 -9 -9z"/>
<path d="M2653 136 c-3 -6 -3 -8 2 -4 4 4 14 3 22 -3 10 -9 13 -8 13 3 0 17
-28 20 -37 4z"/>
<path d="M3590 132 c0 -4 10 -9 22 -9 18 -2 20 0 8 7 -18 12 -30 13 -30 2z"/>
<path d="M3379 94 c-8 -9 -5 -11 11 -7 25 7 35 20 14 20 -8 0 -19 -6 -25 -13z"/>
<path d="M2710 96 c0 -2 7 -7 16 -10 8 -3 12 -2 9 4 -6 10 -25 14 -25 6z"/>
<path d="M3281 81 c-10 -6 -9 -10 4 -14 11 -5 14 -3 9 5 -5 8 -2 9 9 5 9 -3
18 -3 21 1 6 11 -27 12 -43 3z"/>
<path d="M3106 72 c-2 -4 4 -8 14 -8 10 0 16 4 14 8 -7 10 -21 10 -28 0z"/>
<path d="M3158 68 c-9 -5 -6 -7 9 -5 12 2 25 6 28 8 8 9 -23 6 -37 -3z"/>
</g>
</svg>
